<svg width="32" height="32" viewBox="0 0 32 32" fill="none" xmlns="http://www.w3.org/2000/svg">
<g clip-path="url(#clip0_2002_179)">
<circle cx="16" cy="16" r="16" fill="white"/>
<path d="M23.5833 12.75H22.695L20.8533 7.68C20.7009 7.26195 20.4239 6.9007 20.0597 6.645C19.6955 6.3893 19.2617 6.25143 18.8167 6.25H17.0833C16.4875 6.25 16 6.7375 16 7.33333C16 7.92917 16.4875 8.41667 17.0833 8.41667H18.8167L20.3983 12.75H15.1875L14.7975 11.6667H14.895C15.4908 11.6667 15.9783 11.1792 15.9783 10.5833C15.9783 9.9875 15.4908 9.5 14.895 9.5H11.6667C11.0708 9.5 10.5833 9.9875 10.5833 10.5833C10.5833 11.1792 11.0708 11.6667 11.6667 11.6667H12.4792L14.4508 17.0833H13.725C13.2483 14.6675 11.2225 12.88 8.6875 12.7608C5.65417 12.6092 3 15.1333 3 18.1667C3 21.2 5.38333 23.5833 8.41667 23.5833C11.0817 23.5833 13.2375 21.7525 13.725 19.25H18.275C18.7517 21.6658 20.7775 23.4533 23.3125 23.5725C26.3458 23.7133 29 21.2 29 18.1558C29 15.1333 26.6167 12.75 23.5833 12.75ZM9.5 19.25H11.4717C11.0167 20.5825 9.73833 21.5033 8.2 21.4058C6.58583 21.3083 5.2425 19.9433 5.16667 18.3183C5.09083 16.4225 6.5425 14.9167 8.41667 14.9167C9.8575 14.9167 11.0383 15.8158 11.4717 17.0833H9.5C8.90417 17.0833 8.41667 17.5708 8.41667 18.1667C8.41667 18.7625 8.90417 19.25 9.5 19.25ZM18.275 17.0833H16.7583L15.9675 14.9167H19.25C18.7733 15.545 18.4267 16.2708 18.275 17.0833ZM23.4533 21.4167C21.785 21.3517 20.3767 19.9325 20.3333 18.2533C20.3117 17.2133 20.7558 16.3033 21.4708 15.6967L22.1425 17.5383C22.3483 18.1017 22.9658 18.3942 23.5292 18.1883C24.0925 17.9825 24.385 17.365 24.1792 16.8017L23.4967 14.9275L23.5075 14.9167C23.9418 14.9019 24.3747 14.9752 24.7799 15.1323C25.1851 15.2894 25.5543 15.527 25.8651 15.8308C26.1759 16.1345 26.422 16.4981 26.5884 16.8996C26.7548 17.3011 26.8381 17.7321 26.8333 18.1667C26.8333 20.03 25.3383 21.4817 23.4533 21.4167Z" fill="url(#paint0_linear_2002_179)"/>
</g>
<defs>
<linearGradient id="paint0_linear_2002_179" x1="16" y1="6.25" x2="16" y2="23.5833" gradientUnits="userSpaceOnUse">
<stop stop-color="#F2A50C"/>
<stop offset="1" stop-color="#E59317"/>
</linearGradient>
<clipPath id="clip0_2002_179">
<rect width="32" height="32" fill="white"/>
</clipPath>
</defs>
</svg>
